PathFileType	4	(X/Y/Z)	pose_F01_0-89.trc
DataRate	CameraRate	NumFrames	NumMarkers	Units	OrigDataRate	OrigDataStartFrame	OrigNumFrames
30	30	9	21	m	30	38	89
Frame#	Time	CHip			RHip			RKnee			RAnkle			RBigToe			RSmallToe			RHeel			LHip			LKnee			LAnkle			LBigToe			LSmallToe			LHeel			Neck			Nose			RShoulder			RElbow			RWrist			LShoulder			LElbow			LWrist			
		X1	Y1	Z1	X2	Y2	Z2	X3	Y3	Z3	X4	Y4	Z4	X5	Y5	Z5	X6	Y6	Z6	X7	Y7	Z7	X8	Y8	Z8	X9	Y9	Z9	X10	Y10	Z10	X11	Y11	Z11	X12	Y12	Z12	X13	Y13	Z13	X14	Y14	Z14	X15	Y15	Z15	X16	Y16	Z16	X17	Y17	Z17	X18	Y18	Z18	X19	Y19	Z19	X20	Y20	Z20	X21	Y21	Z21	
38	1.2666666666666666	-0.256510081501129	1.8337073131715897	-0.5227885379481617	-0.27253595075097126	1.827680975828611	-0.4608074533407679	-0.24607690018723224	1.7173037171630696	-0.4052565097475197													-0.24124350426531846	1.837198662791948	-0.5912584871603388	-0.2233392499016656	1.7155138990527528	-0.4712341201600585	-0.23374462180958266	1.624813836111612	-0.4690228441007768	-0.23835198179638853	1.587645000703577	-0.5101649786184993	-0.2378390953876242	1.5424526417607598	-0.587794863902802				-0.2520272553300098	1.9878562059834013	-0.5316782842454144	-0.258295863205801	2.0571270832710695	-0.5756358209252885	-1.7977721986390223	1.8915018554670604	1.2564660967200845	-0.28151544283202573	1.8994009222056765	-0.3961518195875668	-0.2959823111347992	1.8266133183608635	-0.3757942838213148	-0.2274423755265818	1.9955389929306917	-0.62492894102007	-1.3197245012719712	1.851248431701705	0.43413795802829586	-1.281631588004761	1.8431910357597483	0.2959271228628092
39	1.3	-0.25627271724744716	1.8345293562692822	-0.523096138562807	-0.27226004023891404	1.830787255624059	-0.46142760378043296	-0.24607690018723224	1.7173037171630696	-0.4052565097475197													-0.24099906894483736	1.837658682163696	-0.591631612820723	-0.2233392499016656	1.7155138990527528	-0.4712341201600585	-0.23374462180958266	1.624813836111612	-0.4690228441007768	-0.23835198179638853	1.587645000703577	-0.5101649786184993	-0.23795716453078095	1.5421549422597238	-0.5890008862636565				-0.25106399503195326	1.9872453161833954	-0.536851866987959	-0.2582470789647584	2.057421690292932	-0.5758465464109406	-1.7881882045962854	1.8914086090301871	1.239201112964727	-0.2804678013447136	1.8998818734285747	-0.40132480786141	-0.2959823111347992	1.8266133183608635	-0.3757942838213148	-0.22629752510117235	1.9947498304522102	-0.6301718220942085	-1.332828119743711	1.8607953359384326	0.4441767404316356	-1.2784251603378205	1.8445731787174047	0.2821859548433942
40	1.3333333333333333	-0.25616643024960917	1.833863542098717	-0.5230840323747454	-0.27170209464314676	1.8304802526358588	-0.4628640777109006	-0.24607690018723224	1.7173037171630696	-0.4052565097475197													-0.23983507804270354	1.8369120289701897	-0.592589370340121	-0.2233392499016656	1.7155138990527528	-0.4712341201600585	-0.23374462180958266	1.624813836111612	-0.4690228441007768	-0.23835198179638853	1.587645000703577	-0.5101649786184993	-0.23807523367393768	1.5418572427586876	-0.5902069086245111				-0.25098787676845363	1.9871673901736313	-0.5370799839640475	-0.2579369654582063	2.0570791615517177	-0.5835662473548612	-0.2708402920931445	1.985468323162176	-0.4464911238051612	-0.2816695595308391	1.9016890613939836	-0.4049279017265312	-0.2959823111347992	1.8266133183608635	-0.3757942838213148	-0.22416115495364677	1.994478138780748	-0.6325973480904211	-0.21517359650855672	1.9581127278102297	-0.7094468385901421	-1.263678831954552	1.8456633588842775	0.23972749848980573
41	1.3666666666666667	-0.25606014325177123	1.833197727928152	-0.523071926186684	-0.27114414904737943	1.8301732496476584	-0.46430055164136824	-0.24607690018723224	1.7173037171630696	-0.4052565097475197													-0.23867108714056973	1.8361653757766836	-0.5935471278595192	-0.2233392499016656	1.7155138990527528	-0.4712341201600585	-0.23374462180958266	1.624813836111612	-0.4690228441007768	-0.23835198179638853	1.587645000703577	-0.5101649786184993	-0.23807523367393768	1.5418572427586876	-0.5902069086245111				-0.2489636842633227	1.9880755477021856	-0.5392833836717005	-0.25778585626862643	2.057394565402711	-0.5919042731207056	-1.77869783438493	1.891387466694266	1.2216879237050482	-0.28273631800346877	1.8998143915098107	-0.4078021864030165	-0.2959823111347992	1.8266133183608635	-0.3757942838213148	-0.22409555088464356	1.9972123635394543	-0.6329302385744379	-0.22053437906975393	1.9605422144129683	-0.7002081654806243	-0.2562660738486965	1.9542230522546264	-0.7627852657199661
42	1.4	-0.2540626974884611	1.8353967878700024	-0.5255523380246078	-0.27058620345161216	1.8298662466594582	-0.46573702557183594	-0.24607690018723224	1.7173037171630696	-0.4052565097475197													-0.2385794758748962	1.8382693929829155	-0.5939958845849636	-0.2233392499016656	1.7155138990527528	-0.4712341201600585	-0.23374462180958266	1.624813836111612	-0.4690228441007768	-0.23835198179638853	1.587645000703577	-0.5101649786184993	-0.23807523367393768	1.5418572427586876	-0.5902069086245111				-0.25002831216865934	1.9883505970788877	-0.5427542684715332	-0.2587371981031716	2.0571926295621417	-0.5951139437543088	-0.2689691028215995	1.9856247048210571	-0.44887371185784813	-0.28378272560741336	1.899728100050247	-0.4111053189889013	-0.2959823111347992	1.8266133183608635	-0.3757942838213148	-0.22286784103583077	1.9971703494213666	-0.6382283856891935	-1.3398904993557106	1.8639011196309654	0.44115541740357833	-0.25615413573448637	1.9547993836992814	-0.7629547776753366
43	1.4333333333333333	-0.25576142436027266	1.8350454649626946	-0.5302367491598743	-0.27002825785584483	1.8295592436712578	-0.4671734995023036	-0.24607690018723224	1.7173037171630696	-0.4052565097475197													-0.2396830495682577	1.8368459095238676	-0.5970342013621914	-0.2233392499016656	1.7155138990527528	-0.4712341201600585	-0.23374462180958266	1.624813836111612	-0.4690228441007768	-0.23835198179638853	1.587645000703577	-0.5101649786184993	-0.23807523367393768	1.5418572427586876	-0.5902069086245111				-0.2500141603360363	1.9869468435947963	-0.5425655561970172	-0.257731496433871	2.0585259160406784	-0.6006238288479524	-0.26899033856721494	1.9855169029012378	-0.44885106297036836	-0.2828771588555666	1.898294800610589	-0.40771218955785543	-0.2959823111347992	1.8266133183608635	-0.3757942838213148	-0.22380901744039772	1.9951964012407564	-0.6411460840950063	-1.2884570317696697	1.847786209776729	0.3702047186421055	-1.244538864335104	1.845066766287655	0.22191409592415334
44	1.4666666666666666	-0.2574601512320842	1.8346941420553866	-0.5349211602951408	-0.26947031226007756	1.8292522406830576	-0.4686099734327712	-0.24607690018723224	1.7173037171630696	-0.4052565097475197													-0.2407866232616192	1.8354224260648195	-0.6000725181394193	-0.2233392499016656	1.7155138990527528	-0.4712341201600585	-0.23374462180958266	1.624813836111612	-0.4690228441007768	-0.23835198179638853	1.587645000703577	-0.5101649786184993	-0.23807523367393768	1.5418572427586876	-0.5902069086245111				-0.2480060903419024	1.9869597195423867	-0.5447340345077502	-0.259806367782077	2.0580485199121292	-0.5986908932945181	-0.2700233516704039	1.9830999877783333	-0.4515801607891218	-0.28284016954578284	1.8986631578233706	-0.40779675759154455	-0.2959823111347992	1.8266133183608635	-0.3757942838213148	-0.2208054434615418	1.9949069289311265	-0.6404035432064641	-1.2825239587647916	1.8354584119790132	0.37795276291351154	-1.2657630232032706	1.8429490815751848	0.2750550794997848
45	1.5	-0.2579147322084727	1.8356302120210795	-0.5324102926764324	-0.27047486391548803	1.829639330158485	-0.4676078199893018	-0.24607690018723224	1.7173037171630696	-0.4052565097475197													-0.2405028152169203	1.834620037078774	-0.6001139772879432	-0.2233392499016656	1.7155138990527528	-0.4712341201600585	-0.23374462180958266	1.624813836111612	-0.4690228441007768	-0.23835198179638853	1.587645000703577	-0.5101649786184993	-0.23807523367393768	1.5418572427586876	-0.5902069086245111				-0.24802527151470746	1.9870308911623091	-0.5447948708244483	-0.2588002463600922	2.055793370312236	-0.6033263152361853	-0.270072979998558	1.9845833931610566	-0.45208289441833016	-0.28386158201238787	1.8984722797334483	-0.4110609074516523	-0.2959823111347992	1.8266133183608635	-0.3757942838213148	-0.22090628696505976	1.9921009556417344	-0.6401650529499697	-1.2820388879867601	1.8309947500634947	0.3820524764192943	-1.2717105464888274	1.8388350195707754	0.2909796484628321
46	1.5333333333333334	-0.25836931318486117	1.8365662819867725	-0.5298994250577239	-0.27147941557089844	1.8300264196339124	-0.4666056665458324	-0.24607690018723224	1.7173037171630696	-0.4052565097475197													-0.2409659059902929	1.8359378077283885	-0.6000580332321994	-0.2233392499016656	1.7155138990527528	-0.4712341201600585	-0.23374462180958266	1.624813836111612	-0.4690228441007768	-0.23835198179638853	1.587645000703577	-0.5101649786184993	-0.23807523367393768	1.5418572427586876	-0.5902069086245111				-0.2480934539161164	1.9858449868602006	-0.5448354267366158	-0.25883833712766824	2.0554972927624737	-0.6034336357358255	-1.7694279608277028	1.8915259926459604	1.2045484149214452	-0.28204857942724243	1.8987073240830192	-0.4131983390313687	-0.2959823111347992	1.8266133183608635	-0.3757942838213148	-0.2210758013064485	1.9920985807714393	-0.6405266194879763	-1.2869426533780024	1.8308053843221674	0.38688568994520905	-1.2765987471970806	1.8386558236589827	0.29563347017640657
